<svg xmlns="http://www.w3.org/2000/svg" viewBox="0 0 1034.82 713.29"><defs><style>.cls-1{fill:#b99a6f;}.cls-2{fill:#dae8ef;}.cls-3{fill:#404042;}.cls-4{fill:#9fb5bc;}.cls-5{fill:#3a322e;}.cls-6{fill:#f74d41;}.cls-7{fill:#868788;}.cls-8{opacity:0.5;}.cls-9{fill:#fff;}.cls-10{opacity:0.75;}.cls-11{fill:#eacdb0;}.cls-12{fill:#6f7f8c;}.cls-13{fill:#514943;}.cls-14{fill:#363636;}.cls-15{fill:#495860;}.cls-16{fill:#f2aca4;}</style></defs><g id="object"><path class="cls-1" d="M890.31,315.28a3.66,3.66,0,0,1,.74,0c2.3.27,3.12,2.43,5,3.22.85.36,3.47-.46,3.43,1.06,0,.56.08,2.46.06,4.37.55,1.49,1,3,1.73,4.43C903,332,911,337.58,907.64,342a8.92,8.92,0,0,1-2.22,2.28,7.61,7.61,0,0,1-2.45.9c-.66.15-1.68.55-2.24.2s-1.16-2-1.52-2.65q-1.51-2.65-3.05-5.31c-1-1.73-2.33-3.69-4.33-3.75a11.43,11.43,0,0,1-1.31,0,3.42,3.42,0,0,1-1.33-.64,23.05,23.05,0,0,1-4.15-3.55c-2.18-2.41-.93-7.35-.44-10.16a4.82,4.82,0,0,1,.69-2,5,5,0,0,1,3-1.59A10,10,0,0,1,890.31,315.28Z" transform="translate(-43.92 -48.45)"/><path class="cls-2" d="M929.37,377.08a29,29,0,0,1-7.13-2.82,26.39,26.39,0,0,1-4.67-4,122.89,122.89,0,0,1-22.07-30.82,45.35,45.35,0,0,1,14.92-9.69,196,196,0,0,0,21.87,22.3,23.64,23.64,0,0,0,5.19,3.71c2.77,1.32,5.91,1.59,9,1.84l35.62,2.9c7.16.58,14.58,1.24,20.84,4.76,17.37,9.77,7.63,33-10.79,30.53C971.43,393,949.45,383,929.37,377.08Z" transform="translate(-43.92 -48.45)"/><path class="cls-3" d="M978.7,733.82c-1.7,3-5.05,5-8.3,6.41-2.71,1.17-5.6,2.18-7.71,4.25s-3.16,5.61-1.44,8c1.58,2.2,4.65,2.55,7.36,2.71,6.9.41,14.49.81,20.86-2.37,4.69-2.34,13.15-5.51,12.61-12.17a15.39,15.39,0,0,0-1.78-5,35.66,35.66,0,0,1-3-10.91c0,.06-12.33-.3-13.44-.19-4.72.44-3.29,2.63-4.2,6.86A8.74,8.74,0,0,1,978.7,733.82Z" transform="translate(-43.92 -48.45)"/><path class="cls-3" d="M1048.93,736.78c-1.13,3.23-4.07,5.83-7,7.79-2.45,1.64-5.12,3.16-6.82,5.57s-2.1,6.08,0,8.13c1.94,1.88,5,1.68,7.72,1.36,6.86-.84,14.41-1.8,20.1-6.07,4.19-3.14,12-7.78,10.23-14.23a15.27,15.27,0,0,0-2.65-4.62,35.6,35.6,0,0,1-4.93-10.19c0,.06-12.18,1.91-13.26,2.21-4.57,1.29-2.76,3.18-2.9,7.51A8.3,8.3,0,0,1,1048.93,736.78Z" transform="translate(-43.92 -48.45)"/><polygon class="cls-4" points="974.42 483.58 969.66 526.13 962.92 604.64 956.24 682.41 934.92 681.32 926.24 596.44 923.69 524.45 931.84 478.53 974.42 483.58"/><polygon class="cls-4" points="1016.8 484.09 1023.72 510.2 1016.05 584.59 1025.06 683.57 1004.8 685.23 978.52 590.54 957.79 486.95 1016.8 484.09"/><path class="cls-2" d="M955.74,550.43q-1.37,6.08-3,12.08a3.82,3.82,0,0,0-.08,2.6,3.54,3.54,0,0,0,1.64,1.46,32.87,32.87,0,0,0,27,2.06c4.31-1.6,8.25-4.12,12.63-5.52,7.35-2.35,15.14-1.43,22.7-1.23s14-1.91,21.14-2.71c17.59-2,22.28-3,39.2,1.79-.93-31.75,4.84-56.35-.88-86.08q-8.45-44-16.91-88c-1-5-1.93-10-4.12-14.32-9.87-19.53-31.84-22.66-51.08-16.43-9.79,3.17-17.32,14.54-21.92,23.34-5.87,11.25-8.92,23.81-11,36.25-6.53,38.93-5.61,78.82-12.09,117.76Q957.63,542,955.74,550.43Z" transform="translate(-43.92 -48.45)"/><path class="cls-5" d="M995,312.51a7.91,7.91,0,0,0-.32,1.25c-.33,2.21.59,4.47.28,6.69-.5,3.51-4,6.21-3.93,9.76,0,2.91,2.46,5.22,3.16,8,.75,3.08-.69,6.4.19,9.41a20.6,20.6,0,0,0,5.14,7.9c-.61-.57-5,.5-6.33,0-2-.76-2.31-1.41-3.18-3.16s-.79-3.62-2-5.35c-1.43-2.13-3.81-3.44-5-5.77-1.61-3.17-.48-7.05-1.27-10.53-1.2-5.25-6.7-9.39-6-14.73.43-3.14,2.95-5.56,4.07-8.52.84-2.24.85-4.71,1.29-7.07s1.49-4.83,3.63-5.92a37.61,37.61,0,0,1,3.82-1.19c2.15-.83,3.72-2.71,5.73-3.83,2.88-1.61,8.88.49,11.16,2.76s1.77,4.61.37,7.24C1003.57,303.87,996.71,307.72,995,312.51Z" transform="translate(-43.92 -48.45)"/><path class="cls-1" d="M1024,359.59a4.21,4.21,0,0,1-.57,1.17,8.91,8.91,0,0,1-4.47,3.17,21.92,21.92,0,0,1-7.18.82c-3.27,0-3.5-1.89-4.49-4.67-.54-1.52-1-3.07-1.41-4.63-.22-.85-.46-4-1.13-4.52-.45-.35-2,.08-2.68-.15A7.49,7.49,0,0,1,999,348.7a21,21,0,0,1-3.13-4.86l-4.65-8.95a51.16,51.16,0,0,1-4.12-9.42c-1.42-5-1.93-12.28,1.21-16.7,2.86-4,7.73-6.15,12.28-7.62a28.18,28.18,0,0,1,18.6.29,15.14,15.14,0,0,1,6.48,4.39c2.64,3.28,3.33,7.85,3.91,12.14q.81,5.94,1.6,11.88c.62,4.55,1,9.86-1.9,12.93-1.56,1.63-3.85,2.35-5.08,4.3-1.53,2.44-.83,5.55-.42,8.21C1024,356.81,1024.41,358.22,1024,359.59Z" transform="translate(-43.92 -48.45)"/><path class="cls-5" d="M1033.48,289.18c2.09,1,4.55,1.56,6.52,2.83,3.85,2.46,5.39,7.27,6.35,11.74.85,4,3.26,7.22,3.6,11.47a10.39,10.39,0,0,1-2.41,8c-2.45,2.59-6.85,3.75-7.51,7.26-.71,3.81,3.8,7.6,2.14,11.1-.92,1.93-3.29,2.63-4.84,4.1-1.73,1.64-2.31,4.11-3.14,6.35s-2.26,4.59-4.59,5.08c-.76-3.55-1.39-6.36-.47-9.9.53-2.07,2.49-6.06.1-7.74-1.58-1.48-4.67-1.48-5.15-3.59a5,5,0,0,1,.72-2.91,12.48,12.48,0,0,0-1.17-11.29,16.16,16.16,0,0,0-9.41-6.67c-4.44-1.21-4-2.33-5.88-6-1.76-3.39-4-3.85-7.44-4.56-3.12-.64-4.19-1.2-5.77-3.72-1.15-1.84-2.56-4-1.83-6.47a13.49,13.49,0,0,1,3.32-5c2.82-3.12,6-6.45,10.22-6.92,2.33-.26,4.68.42,7,.12,1.54-.2,3-.82,4.53-1.15a12.33,12.33,0,0,1,7.91.87c2.42,1.17,2.67,2.82,4.27,4.83A8,8,0,0,0,1033.48,289.18Z" transform="translate(-43.92 -48.45)"/><path class="cls-5" d="M1021.51,276.23c-.87-2.41-1.21-5.69,1-7,1.21-.7,2.76-.47,4.06-1,2.77-1.12,3.11-4.79,4.15-7.59a2.13,2.13,0,0,1,.72-1.1,3.55,3.55,0,0,1,1.87-.3c2.93-.19,4.58-3.42,7.09-4.95a6.9,6.9,0,0,1,9.34,2.66c.67,1.34.88,2.86,1.53,4.21,2.64,5.44,11.5,6.32,12.82,12.23.89,4-2.33,8.57-.11,12,1.42,2.2,4.78,3.25,4.9,5.86a3.61,3.61,0,0,1-3.11,3.41,7.27,7.27,0,0,1-4.8-1.2c-2.29-1.36-4.2-3.3-6.42-4.78s-5-2.49-7.56-1.68-4.38,3.17-7,3.22c-2.07,0-3.89-1.48-6-1.62s-3.71.95-5.59,1.42-4.39-.09-4.8-2a4.46,4.46,0,0,0-.28-1.37c-.63-1.15-2.71-.69-3.34-1.84.71-1.72,2.21-1.43,2.55-3.56C1022.88,279.66,1022.05,277.75,1021.51,276.23Z" transform="translate(-43.92 -48.45)"/><circle class="cls-6" cx="361.97" cy="212.22" r="165.88"/><circle class="cls-6" cx="893.13" cy="140.93" r="92.48" transform="translate(118.01 624.36) rotate(-45)"/><circle class="cls-7" cx="691.71" cy="148.26" r="4.99"/><circle class="cls-7" cx="719.1" cy="138.48" r="4.99"/><path class="cls-7" d="M795.41,177.14a5,5,0,1,1-5-5A5,5,0,0,1,795.41,177.14Z" transform="translate(-43.92 -48.45)"/><g class="cls-8"><circle class="cls-6" cx="620.46" cy="83.49" r="33.68" transform="translate(352.73 619.72) rotate(-76.72)"/></g><path class="cls-9" d="M405.89,129.25c-72.46,0-131.42,59-131.42,131.42s59,131.43,131.42,131.43,131.43-59,131.43-131.43S478.36,129.25,405.89,129.25Zm10.42,252.07c-1.75.15-3.5.27-5.27.35v-61a161.89,161.89,0,0,1,44.41,7.65A162,162,0,0,1,416.31,381.32Zm-60-53a161.81,161.81,0,0,1,44.39-7.65v61c-1.76-.08-3.51-.2-5.26-.35A162.11,162.11,0,0,1,356.35,328.33ZM395.48,140c1.75-.15,3.5-.27,5.26-.35v61A161.81,161.81,0,0,1,356.35,193,162,162,0,0,1,395.48,140Zm59.94,53A161.66,161.66,0,0,1,411,200.66v-61q3.18.13,6.32.43l-.42.46A162.14,162.14,0,0,1,455.42,193ZM411,211a172.27,172.27,0,0,0,48.41-8.42,162,162,0,0,1,10.74,53H411Zm-10.3,0v44.55H341.61a161.73,161.73,0,0,1,10.72-53A172.05,172.05,0,0,0,400.74,211ZM331.3,255.52H284.9a120.51,120.51,0,0,1,27.66-72,171.91,171.91,0,0,0,30.08,15.5A171.91,171.91,0,0,0,331.3,255.52Zm0,10.3a172,172,0,0,0,11.34,56.47,171.23,171.23,0,0,0-30.08,15.5,120.57,120.57,0,0,1-27.66-72Zm10.31,0h59.13v44.56a172.05,172.05,0,0,0-48.41,8.43A161.78,161.78,0,0,1,341.61,265.82ZM411,310.38V265.82h59.15a161.54,161.54,0,0,1-10.73,53A171.64,171.64,0,0,0,411,310.38Zm69.46-44.56h46.39a120.58,120.58,0,0,1-27.66,72,171.82,171.82,0,0,0-30.07-15.5A172.16,172.16,0,0,0,480.5,265.82Zm0-10.3a172.17,172.17,0,0,0-11.35-56.45,171.28,171.28,0,0,0,30.08-15.51,120.63,120.63,0,0,1,27.66,72Zm11.73-79.68a160.76,160.76,0,0,1-27.06,13.73A172.38,172.38,0,0,0,434,142.87,121,121,0,0,1,492.23,175.84Zm-114.37-33a172.16,172.16,0,0,0-31.26,46.69,160.58,160.58,0,0,1-27-13.73A121.17,121.17,0,0,1,377.86,142.86Zm-58.3,202.66a161.27,161.27,0,0,1,27-13.72,172.47,172.47,0,0,0,31.26,46.69A121.11,121.11,0,0,1,319.56,345.52Zm114.38,33a172.16,172.16,0,0,0,31.26-46.69,161.18,161.18,0,0,1,27,13.72A121,121,0,0,1,433.94,378.48Z" transform="translate(-43.92 -48.45)"/><g class="cls-10"><path class="cls-6" d="M578.56,195.56A5,5,0,0,1,574,192.5a180.08,180.08,0,0,0-165.62-111,5,5,0,0,1,0-9.94h0A190,190,0,0,1,583.14,188.68a5,5,0,0,1-4.58,6.88Z" transform="translate(-43.92 -48.45)"/><path class="cls-6" d="M406.49,452.15h0a190.3,190.3,0,0,1-149-307.46,5,5,0,0,1,7.82,6.12A180.37,180.37,0,0,0,406.52,442.22a5,5,0,0,1,0,9.93Z" transform="translate(-43.92 -48.45)"/><path class="cls-6" d="M537.81,398.54a5,5,0,0,1-3.49-8.5,179.23,179.23,0,0,0,53.47-127.26,5,5,0,0,1,5-4.94h0a5,5,0,0,1,4.94,5A189,189,0,0,1,541.3,397.1,4.93,4.93,0,0,1,537.81,398.54Z" transform="translate(-43.92 -48.45)"/></g><g class="cls-8"><path class="cls-6" d="M427.12,471.34a5.49,5.49,0,0,1-.52-11A199.11,199.11,0,0,0,597.71,321.44a5.49,5.49,0,0,1,10.48,3.28A210.07,210.07,0,0,1,427.66,471.31Z" transform="translate(-43.92 -48.45)"/><path class="cls-6" d="M211.91,206.13a5.49,5.49,0,0,1-5.24-7.13A210.38,210.38,0,0,1,580,141.49a5.49,5.49,0,1,1-9,6.28,199.4,199.4,0,0,0-353.81,54.51A5.48,5.48,0,0,1,211.91,206.13Z" transform="translate(-43.92 -48.45)"/><path class="cls-6" d="M346.21,462.87a5.54,5.54,0,0,1-1.64-.25A209,209,0,0,1,221,359.37a5.49,5.49,0,1,1,9.73-5.09,198.11,198.11,0,0,0,117.1,97.86,5.49,5.49,0,0,1-1.64,10.73Z" transform="translate(-43.92 -48.45)"/></g><path class="cls-11" d="M189.76,358.43l4.88-6.58-.83-7.31,1.35-1,1.19,1.72c.19-3.4,3.49-6.88,5.22-9.66,2.78-4.47,3.49-3.28,7-1.84a58.54,58.54,0,0,1,5.48,2.62c-1.71,4.2-3.49,8.21-4.88,12.54l-5.74,5.43-6.32,9.32Z" transform="translate(-43.92 -48.45)"/><polygon class="cls-12" points="148.61 303.82 121.58 342.13 88.68 334.35 71.1 356.95 125.31 382.76 162.58 309.86 148.61 303.82"/><path class="cls-11" d="M121.4,368.59c-3.65,1.26-12.87,2.59-12.74,3a85.06,85.06,0,0,1-2.91-11.51c-3.83-.1-8.41-.68-10.3-4.56a14.34,14.34,0,0,1-1-4l-2.67-16.89a17.1,17.1,0,0,1-.25-5.87c.65-3.34,3.22-5.67,5.85-7.29,9.73-6,22.07-1.67,32.68-1a5.18,5.18,0,0,1,2.58.62c1.36.86,1.92,2.74,2.3,4.45,2,8.86,4.29,22-3.36,28-1.67,1.3-3.63,2.09-5.28,3.42-4,3.22-.92,7.59-3.47,10.93A3.35,3.35,0,0,1,121.4,368.59Z" transform="translate(-43.92 -48.45)"/><path class="cls-13" d="M145.76,299.61a40,40,0,0,1,1.09-4.69c1-3.31,2.56-6.4,3.12-9.85s-.17-7.57-2.78-9.57a8.81,8.81,0,0,0-5.82-1.38,33,33,0,0,0-18.47,6.53c-5.18,3.84-9.42,8.55-16,8.24-6.14-.28-9.74,2.14-14.65,6.6C87,300.31,79,304,74.54,309.65A20.32,20.32,0,0,0,71,318.13c-2.17,10.75,1.69,23,9.45,30A38.87,38.87,0,0,0,86,352.29c4,2.52,8.89,5.67,13.28,5.51-1.2-4.13-8.53-15.82-6.87-20.21,2.64-7,13-8.79,18.79-9.51,6.31-.78,13,2,19.17.87,4.41-.84,9-5.22,11.75-9.05C145.54,315.17,144.73,305.43,145.76,299.61Z" transform="translate(-43.92 -48.45)"/><polygon class="cls-14" points="27.63 696.35 26.65 703.91 41.99 713.29 51.13 706.64 43.96 698.17 28.62 688.78 27.63 696.35"/><polygon class="cls-15" points="31.71 465.21 28.72 488.17 48.82 591.39 27.09 693.81 42.9 698.62 96.76 577.33 100.33 540.02 94.94 462.52 31.71 465.21"/><polygon class="cls-15" points="132.69 474.05 134 571.27 112.66 696.62 96.25 696.62 85.88 580.96 63.42 465.29 132.69 474.05"/><polygon class="cls-14" points="96.34 694.95 96.34 702.56 114.09 710.18 122.96 702.56 114.09 694.95 96.34 694.95"/><path class="cls-12" d="M66.93,531.72a92.1,92.1,0,0,0,4.88,24.75,192.93,192.93,0,0,1,73.69-15.06,97.89,97.89,0,0,1,23.16,2.21c3.63.87,7.35,3.19,10.9,3.82s7.77-2,11.08-3.24c1.78-.67-5.66-68.68-9.21-77.07-8.35-19.74-17.15-39.23-26-58.69-3.75-8.26-7-19.71-12.89-26-9.92-10.7-26.31-21.92-39.37-9.6-3.62,3.41-6.19,7.79-8.53,12.18C74,423.85,67.24,468.73,66.55,512.74,66.45,519,66.48,525.41,66.93,531.72Z" transform="translate(-43.92 -48.45)"/><path class="cls-9" d="M135.46,383.69S157,413.87,167.8,439.74c5.5,13.22,12.39,56.05,15.09,62s0,19.4,0,19.4l-5.44,2.27s-9.11-54.55-14-69.64S151.09,427.34,150,415s-17.78-31.26-17.78-31.26Z" transform="translate(-43.92 -48.45)"/><circle class="cls-6" cx="613.53" cy="178.9" r="66.29"/><path class="cls-7" d="M185.5,172a4.78,4.78,0,1,1,.15-6.75A4.77,4.77,0,0,1,185.5,172Z" transform="translate(-43.92 -48.45)"/><path class="cls-7" d="M162.34,161.07a4.78,4.78,0,1,1,.15-6.76A4.78,4.78,0,0,1,162.34,161.07Z" transform="translate(-43.92 -48.45)"/><path class="cls-7" d="M210.44,184.45a4.78,4.78,0,1,1,.14-6.76A4.78,4.78,0,0,1,210.44,184.45Z" transform="translate(-43.92 -48.45)"/><path class="cls-7" d="M631.94,133.83a4.78,4.78,0,1,1,5.17-4.37A4.79,4.79,0,0,1,631.94,133.83Z" transform="translate(-43.92 -48.45)"/><path class="cls-7" d="M638.41,156.74a4.78,4.78,0,1,1,5.16-4.36A4.77,4.77,0,0,1,638.41,156.74Z" transform="translate(-43.92 -48.45)"/><circle class="cls-6" cx="100.22" cy="117.17" r="56.28" transform="translate(-69.06 -21.05) rotate(-13.85)"/><rect class="cls-16" x="626.81" y="629.35" width="59.33" height="45.93"/><path class="cls-16" d="M791.75,750.25H609.05V722.31a6.62,6.62,0,0,1,6.63-6.62H785.13a6.62,6.62,0,0,1,6.62,6.62Z" transform="translate(-43.92 -48.45)"/><rect class="cls-16" x="398.12" y="284.6" width="516.71" height="357.87"/><rect class="cls-9" x="425.84" y="306.14" width="461.27" height="297.33"/><rect class="cls-9" x="637.45" y="615.77" width="38.05" height="7.08"/><path class="cls-9" d="M961.2,125.63a32,32,0,0,0-35.58-13.92l-.07,0a14.23,14.23,0,0,0-9.06,9.1c-.32,1-1.92.59-1.6-.43a15.78,15.78,0,0,1,9.48-10C919.53,95.5,905,85,889.11,86.25c-15.64,1.25-28.28,13.19-31.22,28.45a20.84,20.84,0,0,1,3.86,1.29,26.21,26.21,0,0,1,11.65,10.79.83.83,0,0,1-1.43.84,26.7,26.7,0,0,0-3.18-4.3,22.19,22.19,0,0,0-17.47-7.48,28.4,28.4,0,0,0-18.49,8.93,27.53,27.53,0,0,0-7.2,21,27,27,0,0,0,10.81,19.06,33.49,33.49,0,0,0,19.23,6.28c4.58.15,9.16.19,13.74.23,13.09.1,26.18.08,39.27,0q8.64,0,17.26-.07c4.72,0,9.7.33,14.35-.59,15.2-3,26.64-17,25-32.75A29.81,29.81,0,0,0,961.2,125.63Z" transform="translate(-43.92 -48.45)"/><rect class="cls-6" x="425.84" y="372.52" width="461.92" height="165.49"/><path class="cls-9" d="M636.59,458.75h-8.87a1.81,1.81,0,0,0-1.66.94,1.69,1.69,0,0,0-.26.52l-20.43,62.14q-10.2-31-20.42-62a2.06,2.06,0,0,0-1.92-1.46l-6.89-.11a2,2,0,0,0-1.92,1.46l-20.73,61.94q-10.11-31-20.23-61.94a2,2,0,0,0-1.92-1.46h-9.19a2,2,0,0,0-1.92,2.52q13.68,40.53,27.38,81.06a2,2,0,0,0,1.91,1.46h7.56a2,2,0,0,0,1.92-1.46q10.2-30.33,20.42-60.66l20.31,60.66a2,2,0,0,0,1.92,1.46h7.67a2.06,2.06,0,0,0,1.92-1.46l27.27-81.06A2,2,0,0,0,636.59,458.75Z" transform="translate(-43.92 -48.45)"/><path class="cls-9" d="M758.37,458.75H749.5a1.8,1.8,0,0,0-1.66.94,1.69,1.69,0,0,0-.26.52l-20.43,62.14q-10.2-31-20.42-62a2.06,2.06,0,0,0-1.92-1.46l-6.9-.11a2,2,0,0,0-1.91,1.46l-20.73,61.94q-10.11-31-20.23-61.94a2,2,0,0,0-1.92-1.46h-9.2a2,2,0,0,0-1.91,2.52l27.37,81.06a2.05,2.05,0,0,0,1.92,1.46h7.56a2.06,2.06,0,0,0,1.92-1.46Q691,512,701.2,481.67l20.31,60.66a2,2,0,0,0,1.92,1.46h7.67a2.07,2.07,0,0,0,1.92-1.46l27.27-81.06A2,2,0,0,0,758.37,458.75Z" transform="translate(-43.92 -48.45)"/><path class="cls-9" d="M880.15,458.75h-8.88a1.79,1.79,0,0,0-1.65.94,1.69,1.69,0,0,0-.26.52l-20.43,62.14q-10.2-31-20.42-62a2.06,2.06,0,0,0-1.92-1.46l-6.9-.11a2,2,0,0,0-1.91,1.46l-20.73,61.94q-10.11-31-20.23-61.94a2,2,0,0,0-1.92-1.46h-9.2a2,2,0,0,0-1.92,2.52q13.69,40.53,27.38,81.06a2.05,2.05,0,0,0,1.92,1.46h7.56a2.06,2.06,0,0,0,1.92-1.46L823,481.67q10.17,30.33,20.32,60.66a2,2,0,0,0,1.92,1.46h7.67a2.07,2.07,0,0,0,1.92-1.46q13.62-40.53,27.26-81.06A2,2,0,0,0,880.15,458.75Z" transform="translate(-43.92 -48.45)"/><polygon class="cls-16" points="301.77 278.39 27.25 457.3 107.49 495.23 40.88 597.72 78.37 622.09 115.87 646.46 182.48 543.97 249.72 601.9 301.77 278.39"/><path class="cls-9" d="M166.17,697.9l22.48-34.59q17.92-27.59,35.86-55.17l6.3-9.69L287.15,647l8.41,7.24c2,1.73,4.66-.34,5-2.43l5.19-32.24,12.45-77.39q7.5-46.63,15-93.27,6.48-40.32,13-80.66,2.16-13.38,4.31-26.77c.67-4.18,1.61-8.41,2-12.62,0-.19.06-.37.09-.56a2.63,2.63,0,0,0-1.29-2.87,2.5,2.5,0,0,0-3.33-.26L320.63,343,255,385.79l-79.14,51.58L107.37,482Q90.66,492.87,74,503.76l-.48.31a3.27,3.27,0,0,0,.36,5.93L144,543.19l6.4,3L130,577.69Q112,605.28,94.1,632.86q-4.12,6.38-8.27,12.73a3.27,3.27,0,0,0,.89,4.46l59.71,38.81,15.28,9.93A3.27,3.27,0,0,0,166.17,697.9Zm-60.6-43.27L93,646.43q10.36-15.93,20.71-31.86l35.86-55.17q4.14-6.36,8.27-12.73c1.23-1.88.23-3.94-1.63-4.82L86,508.67l-4.55-2.16L103.64,492l65.68-42.8,79.14-51.58L316.9,353q14.09-9.18,28.18-18.36L341,360l-12.45,77.4q-7.5,46.63-15,93.26-6.48,40.34-13,80.66-2.16,13.39-4.31,26.78c-.37,2.28-.93,4.69-1.37,7.09l-54.59-47L231.89,591c-1.31-1.13-3.6-.43-4.46.89L205,626.43,169.09,681.6l-6.54,10.07Z" transform="translate(-43.92 -48.45)"/><polygon class="cls-11" points="165.36 428.13 173.31 430.21 179.8 426.71 181.23 427.6 180.07 429.34 186.28 427.85 190.85 429.9 191.82 436.23 188.29 442.12 181.45 442.61 174.25 439.3 163.22 436.89 165.36 428.13"/><path class="cls-12" d="M216.05,476.86,156.64,458l-13.8-15.32c-5.1-5.66-12.45-17.44-20-19.76a20.93,20.93,0,0,0-6.37-.64c-3.94,0-8,.23-11.62,1.73s-6.88,4.52-7.65,8.39c-2.18,11,12,22.49,18.28,30l18.44,22.27,81.74,7.44Z" transform="translate(-43.92 -48.45)"/><path class="cls-9" d="M122.53,125.38a11,11,0,0,0-9.91,6.25L89,128.44a15.68,15.68,0,0,0-5.06-10.85L97.27,98.34a13,13,0,1,0-8-12,12.91,12.91,0,0,0,2.87,8.12L78.39,114.3a15.71,15.71,0,1,0-5.19,30.52,15.79,15.79,0,0,0,14.65-9.89l23.88,3.22a11,11,0,1,0,10.8-12.77Z" transform="translate(-43.92 -48.45)"/><path class="cls-9" d="M711.4,206.05a16.19,16.19,0,0,0-13.83-8H674c-4.92,0-9.85,0-14.77,0a16.21,16.21,0,0,0-11.84,5,16.78,16.78,0,0,0-4.33,11.41h-8c-4.92,0-9.85,0-14.77,0a16.21,16.21,0,0,0-11.84,5,16.87,16.87,0,0,0-4.35,11.83v9.57c0,2.89-.21,5.9.48,8.72a16.08,16.08,0,0,0,11.29,11.52,23.93,23.93,0,0,0,6.37.56h36.36a15.55,15.55,0,0,0,15.71-13.93h0v-.1c.09-.79.15-1.58.18-2.39h23a16.16,16.16,0,0,0,14.06-8.4c1.71-3.27,1.9-6.64,1.9-10.22V216.41C713.53,212.77,713.27,209.31,711.4,206.05Zm-51.52,15.68.09,0c.42.09.84.18,1.25.31l.6.19.17.05.14.08a14.05,14.05,0,0,1,1.37.76l.5.35.26.21a12,12,0,0,1,1.4,1.46l0,0,.07.13c.16.26.35.52.5.79s.62,1.35.49,1a13.56,13.56,0,0,1,.44,1.41c.05.21.09.43.13.65,0,0,.06.52.07.65.12,2.28,0,4.6,0,6.89v1.42H659a10.88,10.88,0,0,1-1.14-.06c.19,0-.93-.18-1.14-.24s-.61-.19-.91-.28l-.13,0,0,0c-.62-.29-1.18-.65-1.77-1l-.22-.15-.51-.45c-.39-.36-.73-.74-1.08-1.13l-.1-.11-.09-.16c-.1-.17-.23-.34-.33-.52s-.32-.54-.46-.82c-.07-.13-.13-.26-.19-.4l0,0a14.19,14.19,0,0,1-.49-1.69l-.06-.33s-.07-.58-.07-.66c0-.35,0-.69,0-1v-7.27h8.36Q659.25,221.67,659.88,221.73Zm7.48,25s0,.08,0,.12,0,0,0,.06a20.71,20.71,0,0,1-.53,2s0,.14-.08.22-.21.43-.33.64c-.2.38-.43.73-.66,1.08,0,0-.33.44-.38.5l-.42.45c-.22.22-.44.44-.68.64a3.47,3.47,0,0,1-.29.25l-.08.06a13.74,13.74,0,0,1-1.48.88l-.3.15-.59.22c-.51.17-1,.28-1.55.4l-.18,0h-.16c-.33,0-.67,0-1,0H620.09a10.88,10.88,0,0,1-1.14-.06c.19,0-.93-.18-1.14-.24s-.61-.19-.92-.28l-.12,0,0,0a19.17,19.17,0,0,1-1.77-1l-.22-.15-.52-.45c-.38-.36-.72-.74-1.07-1.13l-.1-.11-.09-.16c-.1-.17-.23-.34-.34-.52s-.31-.54-.45-.82-.13-.27-.19-.4l0-.05a14,14,0,0,1-.49-1.68l-.06-.33s-.07-.58-.07-.66c0-.35,0-.69,0-1v-8.47c0-2.26-.06-4.53,0-6.79,0-.22,0-.44,0-.66v-.18a1.56,1.56,0,0,0,0-.16c.12-.53.23-1,.39-1.56,0-.07.24-.61.22-.59l.22-.44c.12-.23.25-.46.38-.68s.49-.7.5-.74a11.51,11.51,0,0,1,.88-1l.57-.53.26-.19a13.41,13.41,0,0,1,1.2-.75c.19-.11.4-.21.6-.3,0,0,.6-.22.72-.26a13.28,13.28,0,0,1,1.54-.37l.2,0c.33,0,.66,0,1,0h23v.15h0v.47h0v2.17c0,2.89-.21,5.9.48,8.72a16.08,16.08,0,0,0,11.29,11.52,24,24,0,0,0,6.37.56h6.19v.46C667.39,246.07,667.37,246.4,667.36,246.73Zm39-26.49v9.08c0,.33,0,.66,0,1,0,.05,0,.08,0,.12a.13.13,0,0,1,0,.06,20,20,0,0,1-.53,2,2.11,2.11,0,0,1-.08.22c-.1.22-.21.43-.33.65a11.84,11.84,0,0,1-.66,1.07s-.33.44-.38.5l-.42.45c-.22.23-.44.44-.68.65l-.29.24-.08.06a13.74,13.74,0,0,1-1.48.88l-.3.15-.59.22c-.51.17-1,.28-1.55.4l-.18,0h-.16c-.33,0-.66,0-1,0h-23v-5.25c0-3.64-.26-7.11-2.13-10.36a16.17,16.17,0,0,0-13.83-8h-8.37c0-.27,0-.53,0-.8s0-.44,0-.66v-.18a1,1,0,0,0,.05-.16c.12-.52.23-1,.39-1.55,0-.08.24-.62.22-.6.07-.15.15-.29.22-.44s.25-.45.39-.68.48-.7.49-.74a11.51,11.51,0,0,1,.88-1l.57-.53.26-.19a13.41,13.41,0,0,1,1.2-.75c.19-.1.4-.21.6-.3-.05,0,.6-.22.72-.26a13.28,13.28,0,0,1,1.54-.37l.2,0c.33,0,.66,0,1,0h38.53q.63,0,1.26.06l.09,0c.42.09.84.18,1.25.31l.6.2.17,0,.14.08c.47.24.93.48,1.37.76,0,0,.43.31.51.35l.25.22a11.28,11.28,0,0,1,1.4,1.45l0,0s0,.08.07.13c.17.27.35.52.5.79s.63,1.35.49,1a13.56,13.56,0,0,1,.44,1.41c0,.21.09.43.13.65,0,0,.06.52.07.65C706.44,215.64,706.34,218,706.34,220.24Z" transform="translate(-43.92 -48.45)"/><path class="cls-1" d="M939.52,503.89a5.2,5.2,0,0,1,.14-.88c.68-2.69,3.37-3.32,4.61-5.46.55-.95,0-4.19,1.78-3.91.67.11,2.93.29,5.2.61,1.85-.43,3.73-.77,5.53-1.37,4.57-1.52,12.42-10.11,17.1-5.45a11,11,0,0,1,2.36,3,9.28,9.28,0,0,1,.69,3c.07.81.39,2.08-.11,2.69s-2.59,1.07-3.38,1.4l-6.78,2.8c-2.21.91-4.74,2.2-5.13,4.56a10.09,10.09,0,0,1-.21,1.56,4.07,4.07,0,0,1-1,1.47,28.14,28.14,0,0,1-4.86,4.39c-3.2,2.2-8.87,0-12.13-1.06a5.63,5.63,0,0,1-2.27-1.12,6.14,6.14,0,0,1-1.43-3.81A12.76,12.76,0,0,1,939.52,503.89Z" transform="translate(-43.92 -48.45)"/><path class="cls-2" d="M1022,469.68a34.82,34.82,0,0,1-4.45,8,31.44,31.44,0,0,1-5.44,4.92,146.81,146.81,0,0,1-40,21.44,54.17,54.17,0,0,1-9.19-19.21,236.09,236.09,0,0,0,29.86-22.52,28.68,28.68,0,0,0,5.2-5.59c2-3.08,2.81-6.77,3.58-10.37q4.47-20.91,9-41.84c1.8-8.41,3.73-17.12,8.88-24,14.28-19.12,40.38-4,34.57,17.53C1047.44,422.21,1032.15,446.76,1022,469.68Z" transform="translate(-43.92 -48.45)"/></g></svg>